<svg preserveAspectRatio="none" width="100%" height="100%" overflow="visible" style="display: block;" viewBox="0 0 20 20" fill="none" xmlns="http://www.w3.org/2000/svg">
<g id="Frame">
<path id="Vector" d="M7.94167 13.435C7.72366 12.8975 7.32556 12.4526 6.81556 12.1764C6.30556 11.9002 5.7154 11.8099 5.14614 11.921C4.57689 12.0321 4.06398 12.3377 3.69525 12.7853C3.32653 13.233 3.12493 13.795 3.125 14.375C3.125 14.6318 3.07227 14.8858 2.97007 15.1213C2.86787 15.3569 2.71838 15.5689 2.53087 15.7443C2.34336 15.9197 2.12182 16.0547 1.87999 16.141C1.63816 16.2273 1.38119 16.263 1.125 16.2458C1.53704 16.9616 2.17386 17.5214 2.9366 17.8382C3.69934 18.155 4.54534 18.2111 5.34325 17.9978C6.14116 17.7846 6.84635 17.3139 7.34934 16.6588C7.85234 16.0037 8.125 15.2009 8.125 14.375C8.125 14.0425 8.06 13.725 7.94167 13.435ZM7.94167 13.435C8.93251 13.0974 9.88015 12.6443 10.765 12.085M6.5625 12.0642C6.90017 11.0712 7.35387 10.1216 7.91417 9.235M10.7642 12.085C12.3445 11.0865 13.6971 9.76687 14.7342 8.21167L17.9642 3.36667C18.0879 3.18213 18.1437 2.96037 18.1221 2.73924C18.1005 2.51812 18.0029 2.31135 17.8458 2.15425C17.6887 1.99714 17.4819 1.89945 17.2608 1.87785C17.0396 1.85626 16.8179 1.9121 16.6333 2.03583L11.7883 5.26667C10.2329 6.30345 8.91297 7.65577 7.91417 9.23583C9.18241 9.8029 10.1971 10.8176 10.7642 12.0858" stroke="var(--stroke-0, #2D2B21)" stroke-width="1.5" stroke-linecap="round" stroke-linejoin="round"/>
</g>
</svg>
