<svg width="50" height="50" viewBox="0 0 50 50" fill="none" xmlns="http://www.w3.org/2000/svg">
<path d="M40.253 11.5879C39.9367 11.4244 39.6286 11.2451 39.3302 11.0508C38.4623 10.477 37.6665 9.80093 36.9601 9.03711C35.1925 7.01465 34.5323 4.96289 34.2892 3.52637H34.2989C34.0958 2.33398 34.1798 1.5625 34.1925 1.5625H26.1417V32.6934C26.1417 33.1113 26.1417 33.5244 26.1241 33.9326C26.1241 33.9834 26.1192 34.0303 26.1163 34.085C26.1163 34.1074 26.1163 34.1309 26.1114 34.1543C26.1114 34.1602 26.1114 34.166 26.1114 34.1719C26.0266 35.2888 25.6685 36.3678 25.0688 37.314C24.469 38.2601 23.646 39.0443 22.672 39.5977C21.6569 40.1752 20.5088 40.4781 19.3409 40.4766C15.59 40.4766 12.5499 37.418 12.5499 33.6406C12.5499 29.8633 15.59 26.8047 19.3409 26.8047C20.051 26.804 20.7566 26.9158 21.4318 27.1357L21.4415 18.9385C19.3921 18.6737 17.31 18.8366 15.3266 19.4168C13.3433 19.997 11.5017 20.982 9.91808 22.3096C8.53045 23.5152 7.36386 24.9538 6.47081 26.5605C6.13097 27.1465 4.84874 29.501 4.69347 33.3223C4.59581 35.4912 5.24718 37.7383 5.55773 38.667V38.6865C5.75304 39.2334 6.50987 41.0996 7.74327 42.6729C8.73784 43.9348 9.91289 45.0434 11.2306 45.9629V45.9434L11.2501 45.9629C15.1476 48.6113 19.4689 48.4375 19.4689 48.4375C20.2169 48.4072 22.7228 48.4375 25.5685 47.0889C28.7247 45.5938 30.5216 43.3662 30.5216 43.3662C31.6695 42.0352 32.5823 40.5184 33.2208 38.8809C33.9493 36.9658 34.1925 34.6689 34.1925 33.751V17.2354C34.2901 17.2939 35.5909 18.1543 35.5909 18.1543C35.5909 18.1543 37.465 19.3555 40.3888 20.1377C42.4864 20.6943 45.3126 20.8115 45.3126 20.8115V12.8193C44.3224 12.9268 42.3116 12.6143 40.253 11.5879Z" fill="#831618"/>
</svg>
