<svg preserveAspectRatio="none" width="100%" height="100%" overflow="visible" style="display: block;" viewBox="0 0 20 20" fill="none" xmlns="http://www.w3.org/2000/svg">
<g id="Frame">
<path id="Vector" d="M6.01417 9.08917C5.81239 8.72609 5.49576 8.4403 5.11398 8.27665C4.7322 8.113 4.30688 8.08076 3.90479 8.18498C3.50271 8.28921 3.14661 8.524 2.8924 8.8525C2.63819 9.18101 2.50026 9.58462 2.50026 10C2.50026 10.4154 2.63819 10.819 2.8924 11.1475C3.14661 11.476 3.50271 11.7108 3.90479 11.815C4.30688 11.9192 4.7322 11.887 5.11398 11.7233C5.49576 11.5597 5.81239 11.2739 6.01417 10.9108M6.01417 9.08917C6.16417 9.35917 6.25 9.66917 6.25 10C6.25 10.3308 6.16417 10.6417 6.01417 10.9108M6.01417 9.08917L13.9858 4.66083M6.01417 10.9108L13.9858 15.3392M13.9858 4.66083C14.1027 4.88095 14.2623 5.07555 14.4553 5.23327C14.6482 5.39099 14.8707 5.50866 15.1097 5.5794C15.3486 5.65013 15.5993 5.67252 15.8471 5.64524C16.0948 5.61797 16.3346 5.54158 16.5524 5.42055C16.7703 5.29952 16.9618 5.13627 17.1159 4.94035C17.2699 4.74442 17.3833 4.51976 17.4495 4.27949C17.5157 4.03922 17.5333 3.78816 17.5014 3.541C17.4694 3.29383 17.3885 3.05552 17.2633 2.84C17.0167 2.41528 16.6133 2.10428 16.1398 1.97384C15.6664 1.84341 15.1606 1.90395 14.7313 2.14246C14.302 2.38097 13.9834 2.7784 13.844 3.24933C13.7046 3.72025 13.7555 4.22707 13.9858 4.66083ZM13.9858 15.3392C13.8662 15.5545 13.7902 15.7912 13.7621 16.0359C13.734 16.2806 13.7543 16.5285 13.822 16.7653C13.8897 17.0021 14.0033 17.2233 14.1565 17.4162C14.3096 17.6091 14.4993 17.77 14.7146 17.8896C14.9299 18.0092 15.1667 18.0852 15.4114 18.1133C15.6561 18.1414 15.9039 18.1211 16.1407 18.0534C16.3775 17.9857 16.5987 17.8721 16.7916 17.7189C16.9845 17.5658 17.1454 17.3761 17.265 17.1608C17.5066 16.726 17.5655 16.213 17.4288 15.7347C17.2922 15.2564 16.9711 14.852 16.5362 14.6104C16.1014 14.3688 15.5884 14.3099 15.1101 14.4466C14.6318 14.5832 14.2274 14.9043 13.9858 15.3392Z" stroke="var(--stroke-0, #DFBFBC)" stroke-width="1.5" stroke-linecap="round" stroke-linejoin="round"/>
</g>
</svg>
