<svg preserveAspectRatio="none" width="100%" height="100%" overflow="visible" style="display: block;" viewBox="0 0 30 24" fill="none" xmlns="http://www.w3.org/2000/svg">
<g id="Container">
<path id="Icon" d="M3 24C2.175 24 1.46875 23.7062 0.88125 23.1187C0.29375 22.5312 0 21.825 0 21V3C0 2.175 0.29375 1.46875 0.88125 0.88125C1.46875 0.29375 2.175 0 3 0H12L15 3H27C27.825 3 28.5312 3.29375 29.1187 3.88125C29.7062 4.46875 30 5.175 30 6V21C30 21.825 29.7062 22.5312 29.1187 23.1187C28.5312 23.7062 27.825 24 27 24H3V24M13.5 19.5H25.5V18.675C25.5 17.55 24.95 16.6562 23.85 15.9937C22.75 15.3312 21.3 15 19.5 15C17.7 15 16.25 15.3312 15.15 15.9937C14.05 16.6562 13.5 17.55 13.5 18.675V19.5V19.5M19.5 13.5C20.325 13.5 21.0312 13.2062 21.6187 12.6187C22.2062 12.0312 22.5 11.325 22.5 10.5C22.5 9.675 22.2062 8.96875 21.6187 8.38125C21.0312 7.79375 20.325 7.5 19.5 7.5C18.675 7.5 17.9688 7.79375 17.3813 8.38125C16.7938 8.96875 16.5 9.675 16.5 10.5C16.5 11.325 16.7938 12.0312 17.3813 12.6187C17.9688 13.2062 18.675 13.5 19.5 13.5V13.5" fill="var(--fill-0, #831618)"/>
</g>
</svg>
